HIERARCHY
ROOT Hips
{
  OFFSET -261.949 89.4685 1567.09
  CHANNELS 6 Xposition Yposition Zposition Zrotation Xrotation Yrotation
  JOINT Spine
  {
    OFFSET 0 8 0
    CHANNELS 6 Xposition Yposition Zposition Zrotation Xrotation Yrotation
    JOINT Spine1
    {
      OFFSET 0 8 0
      CHANNELS 6 Xposition Yposition Zposition Zrotation Xrotation Yrotation
      JOINT Spine2
      {
        OFFSET 0 8 0
        CHANNELS 6 Xposition Yposition Zposition Zrotation Xrotation Yrotation
        JOINT Spine3
        {
          OFFSET 0 8 0
          CHANNELS 6 Xposition Yposition Zposition Zrotation Xrotation Yrotation
          JOINT Neck
          {
            OFFSET 0 17 0
            CHANNELS 6 Xposition Yposition Zposition Zrotation Xrotation Yrotation
            JOINT Head
            {
              OFFSET 0 10.8 0
              CHANNELS 6 Xposition Yposition Zposition Zrotation Xrotation Yrotation
              End Site
              {
                OFFSET 0 20.25 0
              }
            }
          }
          JOINT LeftShoulder
          {
            OFFSET 5 17 0
            CHANNELS 6 Xposition Yposition Zposition Zrotation Xrotation Yrotation
            JOINT LeftShoulder2
            {
              OFFSET 6.45 0 0
              CHANNELS 6 Xposition Yposition Zposition Zrotation Xrotation Yrotation
              JOINT LeftArm
              {
                OFFSET 6.45 0 0
                CHANNELS 6 Xposition Yposition Zposition Zrotation Xrotation Yrotation
                JOINT LeftForeArm
                {
                  OFFSET 0 -32.4 -2
                  CHANNELS 6 Xposition Yposition Zposition Zrotation Xrotation Yrotation
                  JOINT LeftHand
                  {
                    OFFSET 0 -25.65 2
                    CHANNELS 6 Xposition Yposition Zposition Zrotation Xrotation Yrotation
                    JOINT LeftHandThumb1
                    {
                      OFFSET -0.5 -1.5 2.65
                      CHANNELS 6 Xposition Yposition Zposition Zrotation Xrotation Yrotation
                      JOINT LeftHandThumb2
                      {
                        OFFSET 0 -3.8 3.7
                        CHANNELS 6 Xposition Yposition Zposition Zrotation Xrotation Yrotation
                        JOINT LeftHandThumb3
                        {
                          OFFSET 0 -3 2.7
                          CHANNELS 6 Xposition Yposition Zposition Zrotation Xrotation Yrotation
                          End Site
                          {
                            OFFSET 0 -2.3 1.8
                          }
                        }
                      }
                    }
                    JOINT LeftHandIndex
                    {
                      OFFSET 0 -1.9 1.6
                      CHANNELS 6 Xposition Yposition Zposition Zrotation Xrotation Yrotation
                      JOINT LeftHandIndex1
                      {
                        OFFSET 0 -8.3 1.9
                        CHANNELS 6 Xposition Yposition Zposition Zrotation Xrotation Yrotation
                        JOINT LeftHandIndex2
                        {
                          OFFSET 0 -4.5 0
                          CHANNELS 6 Xposition Yposition Zposition Zrotation Xrotation Yrotation
                          JOINT LeftHandIndex3
                          {
                            OFFSET 0 -3.4 0
                            CHANNELS 6 Xposition Yposition Zposition Zrotation Xrotation Yrotation
                            End Site
                            {
                              OFFSET 0 -2.6 0
                            }
                          }
                        }
                      }
                    }
                    JOINT LeftHandMiddle
                    {
                      OFFSET -0.25 -2.2 0.4
                      CHANNELS 6 Xposition Yposition Zposition Zrotation Xrotation Yrotation
                      JOINT LeftHandMiddle1
                      {
                        OFFSET 0 -8.3 1
                        CHANNELS 6 Xposition Yposition Zposition Zrotation Xrotation Yrotation
                        JOINT LeftHandMiddle2
                        {
                          OFFSET 0 -4.65 0
                          CHANNELS 6 Xposition Yposition Zposition Zrotation Xrotation Yrotation
                          JOINT LeftHandMiddle3
                          {
                            OFFSET 0 -3.3 0
                            CHANNELS 6 Xposition Yposition Zposition Zrotation Xrotation Yrotation
                            End Site
                            {
                              OFFSET 0 -2.7 0
                            }
                          }
                        }
                      }
                    }
                    JOINT LeftHandRing
                    {
                      OFFSET -0.5 -2.15 -0.8
                      CHANNELS 6 Xposition Yposition Zposition Zrotation Xrotation Yrotation
                      JOINT LeftHandRing1
                      {
                        OFFSET 0 -7.75 -0.2
                        CHANNELS 6 Xposition Yposition Zposition Zrotation Xrotation Yrotation
                        JOINT LeftHandRing2
                        {
                          OFFSET 0 -3.8 0
                          CHANNELS 6 Xposition Yposition Zposition Zrotation Xrotation Yrotation
                          JOINT LeftHandRing3
                          {
                            OFFSET 0 -3.4 0
                            CHANNELS 6 Xposition Yposition Zposition Zrotation Xrotation Yrotation
                            End Site
                            {
                              OFFSET 0 -2.6 0
                            }
                          }
                        }
                      }
                    }
                    JOINT LeftHandPinky
                    {
                      OFFSET -0.75 -1.75 -1.85
                      CHANNELS 6 Xposition Yposition Zposition Zrotation Xrotation Yrotation
                      JOINT LeftHandPinky1
                      {
                        OFFSET 0 -7.15 -1
                        CHANNELS 6 Xposition Yposition Zposition Zrotation Xrotation Yrotation
                        JOINT LeftHandPinky2
                        {
                          OFFSET 0 -3 0
                          CHANNELS 6 Xposition Yposition Zposition Zrotation Xrotation Yrotation
                          JOINT LeftHandPinky3
                          {
                            OFFSET 0 -2.35 0
                            CHANNELS 6 Xposition Yposition Zposition Zrotation Xrotation Yrotation
                            End Site
                            {
                              OFFSET 0 -2.1 0
                            }
                          }
                        }
                      }
                    }
                  }
                }
              }
            }
          }
          JOINT RightShoulder
          {
            OFFSET -5 17 0
            CHANNELS 6 Xposition Yposition Zposition Zrotation Xrotation Yrotation
            JOINT RightShoulder2
            {
              OFFSET -6.45 0 0
              CHANNELS 6 Xposition Yposition Zposition Zrotation Xrotation Yrotation
              JOINT RightArm
              {
                OFFSET -6.45 0 0
                CHANNELS 6 Xposition Yposition Zposition Zrotation Xrotation Yrotation
                JOINT RightForeArm
                {
                  OFFSET 0 -32.4 -2
                  CHANNELS 6 Xposition Yposition Zposition Zrotation Xrotation Yrotation
                  JOINT RightHand
                  {
                    OFFSET 0 -25.65 2
                    CHANNELS 6 Xposition Yposition Zposition Zrotation Xrotation Yrotation
                    JOINT RightHandThumb1
                    {
                      OFFSET 0.5 -1.5 2.65
                      CHANNELS 6 Xposition Yposition Zposition Zrotation Xrotation Yrotation
                      JOINT RightHandThumb2
                      {
                        OFFSET 0 -3.8 3.7
                        CHANNELS 6 Xposition Yposition Zposition Zrotation Xrotation Yrotation
                        JOINT RightHandThumb3
                        {
                          OFFSET 0 -3 2.7
                          CHANNELS 6 Xposition Yposition Zposition Zrotation Xrotation Yrotation
                          End Site
                          {
                            OFFSET 0 -2.3 1.8
                          }
                        }
                      }
                    }
                    JOINT RightHandIndex
                    {
                      OFFSET 0 -1.9 1.6
                      CHANNELS 6 Xposition Yposition Zposition Zrotation Xrotation Yrotation
                      JOINT RightHandIndex1
                      {
                        OFFSET 0 -8.3 1.9
                        CHANNELS 6 Xposition Yposition Zposition Zrotation Xrotation Yrotation
                        JOINT RightHandIndex2
                        {
                          OFFSET 0 -4.5 0
                          CHANNELS 6 Xposition Yposition Zposition Zrotation Xrotation Yrotation
                          JOINT RightHandIndex3
                          {
                            OFFSET 0 -3.4 0
                            CHANNELS 6 Xposition Yposition Zposition Zrotation Xrotation Yrotation
                            End Site
                            {
                              OFFSET 0 -2.6 0
                            }
                          }
                        }
                      }
                    }
                    JOINT RightHandMiddle
                    {
                      OFFSET 0.25 -2.2 0.4
                      CHANNELS 6 Xposition Yposition Zposition Zrotation Xrotation Yrotation
                      JOINT RightHandMiddle1
                      {
                        OFFSET 0 -8.3 1
                        CHANNELS 6 Xposition Yposition Zposition Zrotation Xrotation Yrotation
                        JOINT RightHandMiddle2
                        {
                          OFFSET 0 -4.65 0
                          CHANNELS 6 Xposition Yposition Zposition Zrotation Xrotation Yrotation
                          JOINT RightHandMiddle3
                          {
                            OFFSET 0 -3.3 0
                            CHANNELS 6 Xposition Yposition Zposition Zrotation Xrotation Yrotation
                            End Site
                            {
                              OFFSET 0 -2.7 0
                            }
                          }
                        }
                      }
                    }
                    JOINT RightHandRing
                    {
                      OFFSET 0.5 -2.15 -0.8
                      CHANNELS 6 Xposition Yposition Zposition Zrotation Xrotation Yrotation
                      JOINT RightHandRing1
                      {
                        OFFSET 0 -7.75 -0.2
                        CHANNELS 6 Xposition Yposition Zposition Zrotation Xrotation Yrotation
                        JOINT RightHandRing2
                        {
                          OFFSET 0 -3.8 0
                          CHANNELS 6 Xposition Yposition Zposition Zrotation Xrotation Yrotation
                          JOINT RightHandRing3
                          {
                            OFFSET 0 -3.4 0
                            CHANNELS 6 Xposition Yposition Zposition Zrotation Xrotation Yrotation
                            End Site
                            {
                              OFFSET 0 -2.6 0
                            }
                          }
                        }
                      }
                    }
                    JOINT RightHandPinky
                    {
                      OFFSET 0.75 -1.75 -1.85
                      CHANNELS 6 Xposition Yposition Zposition Zrotation Xrotation Yrotation
                      JOINT RightHandPinky1
                      {
                        OFFSET 0 -7.15 -1
                        CHANNELS 6 Xposition Yposition Zposition Zrotation Xrotation Yrotation
                        JOINT RightHandPinky2
                        {
                          OFFSET 0 -3 0
                          CHANNELS 6 Xposition Yposition Zposition Zrotation Xrotation Yrotation
                          JOINT RightHandPinky3
                          {
                            OFFSET 0 -2.35 0
                            CHANNELS 6 Xposition Yposition Zposition Zrotation Xrotation Yrotation
                            End Site
                            {
                              OFFSET 0 -2.1 0
                            }
                          }
                        }
                      }
                    }
                  }
                }
              }
            }
          }
        }
      }
    }
  }
  JOINT LeftUpLeg
  {
    OFFSET 8 0 0
    CHANNELS 6 Xposition Yposition Zposition Zrotation Xrotation Yrotation
    JOINT LeftLeg
    {
      OFFSET 0 -45 -1
      CHANNELS 6 Xposition Yposition Zposition Zrotation Xrotation Yrotation
      JOINT LeftFoot
      {
        OFFSET 0 -41 -2
        CHANNELS 6 Xposition Yposition Zposition Zrotation Xrotation Yrotation
        JOINT LeftToeBase
        {
          OFFSET 0 -7.5 12.5
          CHANNELS 6 Xposition Yposition Zposition Zrotation Xrotation Yrotation
          JOINT LeftFootToe
          {
            OFFSET 0 0 4
            CHANNELS 6 Xposition Yposition Zposition Zrotation Xrotation Yrotation
            End Site
            {
              OFFSET 0 0 0
            }
          }
        }
      }
    }
  }
  JOINT RightUpLeg
  {
    OFFSET -8 0 0
    CHANNELS 6 Xposition Yposition Zposition Zrotation Xrotation Yrotation
    JOINT RightLeg
    {
      OFFSET 0 -45 -1
      CHANNELS 6 Xposition Yposition Zposition Zrotation Xrotation Yrotation
      JOINT RightFoot
      {
        OFFSET 0 -41 -2
        CHANNELS 6 Xposition Yposition Zposition Zrotation Xrotation Yrotation
        JOINT RightToeBase
        {
          OFFSET 0 -7.5 12.5
          CHANNELS 6 Xposition Yposition Zposition Zrotation Xrotation Yrotation
          JOINT RightFootToe
          {
            OFFSET 0 0 4
            CHANNELS 6 Xposition Yposition Zposition Zrotation Xrotation Yrotation
            End Site
            {
              OFFSET 0 0 0
            }
          }
        }
      }
    }
  }
}
MOTION
Frames:	3
Frame Time:	0.0111111
-261.844 90.2015 1565.93 3.16404 -2.69228 162.032 0 8 0 16.2247 20.1033 -2.05971 0 8 4.54747e-13 1.83128 7.73402 -0.787587 0 8 -2.27374e-13 0.901614 3.87479 -0.367254 0 8 0 0.899359 3.86538 -0.366363 -5.68434e-14 17 0 3.83907 7.843 -10.4374 -2.27374e-13 10.8 0 11.4621 17.0537 -25.9267 5 17 0 -4.34751 1.2489 -0.99986 6.45 0 0 0.643196 -1.1298 0.524003 6.45 0 0 18.761 19.5012 21.7082 -5.68434e-14 -32.4 -2 -38.852 -68.1502 -84.4767 0 -25.65 2 28.2573 -18.7452 -21.2354 -0.5 -1.5 2.65 -34.5742 -60.2763 109.927 2.84217e-14 -3.8 3.7 -0.0764708 33.4186 0.0258761 8.52651e-14 -3 2.7 -0.0870198 18.7608 0.00684955 0 -1.9 1.6 5.95877e-31 -4.77083e-15 7.15625e-15 2.27374e-13 -8.3 1.9 -40.4742 12.5421 5.42264 -2.27374e-13 -4.5 0 -78.6792 0.0105511 -0.00397774 0 -3.4 0 -63.7354 0.0175704 0.00801776 -0.25 -2.2 0.4 5.95877e-31 -4.77083e-15 7.15625e-15 1.13687e-13 -8.3 1 -38.0792 9.63182 4.74628 -2.27374e-13 -4.65 0 -76.2033 0.00693313 0.00656349 -1.13687e-13 -3.3 0 -90.0002 5.42682e-14 -1.55052e-14 -0.5 -2.15 -0.8 5.95877e-31 -4.77083e-15 7.15625e-15 0 -7.75 -0.2 -58.0513 5.88736 9.57632 -4.54747e-13 -3.8 -5.68434e-14 -1.77347 -0.000110986 -1.37161e-14 0 -3.4 0 -90.0002 -1.19072e-13 1.06089e-13 -0.75 -1.75 -1.85 5.95877e-31 -4.77083e-15 7.15625e-15 0 -7.15 -1 -17.8946 11.9795 2.58248 -2.27374e-13 -3 -1.13687e-13 -67.3277 -0.00144583 -0.00348933 0 -2.35 1.7053e-13 -90.0002 1.13208e-13 -8.46326e-14 -5 17 -2.27374e-13 4.62186 -0.836623 -4.57118 -6.45 0 2.27374e-13 -1.76657 0.0062351 -1.56084 -6.45 -1.13687e-13 0 -42.5096 2.76935 -12.27 2.84217e-14 -32.4 -2 21.5249 -52.7127 39.8724 0 -25.65 2 -31.4896 -10.0182 -11.5921 0.5 -1.5 2.65 25.1912 12.8217 16.5861 0 -3.8 3.7 2.49839 24.487 -0.788419 0 -3 2.7 0.106243 -1.46781 -0.197245 2.84217e-14 -1.9 1.6 -1.59028e-15 -9.54166e-15 3.97569e-15 -1.42109e-14 -8.3 1.9 17.7551 16.4218 -2.83047 -5.68434e-14 -4.5 0 1.17365e-06 0.00464329 -0.0144823 -2.84217e-14 -3.4 0 9.87768e-07 0.00430377 -0.0131501 0.25 -2.2 0.4 -1.59028e-15 -9.54166e-15 3.97569e-15 2.84217e-14 -8.3 1 14.0913 9.59565 -1.39124 -5.68434e-14 -4.65 -2.27374e-13 -2.77118e-14 -0.0012325 3.72721e-16 0 -3.3 2.27374e-13 -7.25564e-15 4.66677e-06 -2.03754e-15 0.5 -2.15 -0.8 -1.59028e-15 -9.54166e-15 3.97569e-15 0 -7.75 -0.2 12.2537 6.17753 -0.951079 0 -3.8 2.27374e-13 40.1842 0.02065 -0.126833 -1.13687e-13 -3.4 4.54747e-13 28.2249 -0.0251244 -0.0742277 0.75 -1.75 -1.85 -1.59028e-15 -9.54166e-15 3.97569e-15 1.42109e-14 -7.15 -1 17.9548 4.09599 -1.2023 2.84217e-14 -3 -2.27374e-13 32.5757 0.00206805 -0.148509 1.13687e-13 -2.35 2.27374e-13 23.6263 -0.0340898 -0.0824778 8 0 2.27374e-13 1.4125 -25.8045 -16.1564 0 -45 -1 -0.139075 26.9739 0.563725 -1.13687e-13 -41 -2 -3.73344 -2.80945 4.85352 5.68434e-14 -7.5 12.5 -1.39285e-16 -0.0961726 9.54168e-15 0 -4.44089e-16 4 1.38862 -0.687058 41.43 -8 0 0 -3.19732 -18.0302 -34.8194 2.27374e-13 -45 -1 0.00166339 26.7708 -0.248859 0 -41 -2 -3.44575 -9.16563 6.89646 2.27374e-13 -7.5 12.5 6.21202e-18 -3.10601e-17 -6.36111e-15 -2.27374e-13 0 4 6.71174 9.03385 42.6317 
-261.859 90.0574 1566.24 3.4622 -2.59397 162.612 8.52651e-14 8 0 16.1456 20.1602 -2.26153 -5.68434e-14 8 2.27374e-13 1.86857 7.68845 -0.794462 1.13687e-13 8 0 0.920002 3.85201 -0.367244 -1.7053e-13 8 0 0.917724 3.84273 -0.366353 5.68434e-14 17 0 3.83281 7.73384 -10.4711 -2.27374e-13 10.8 0 11.4117 16.7976 -25.977 5 17 0 -4.28623 1.27062 -1.0572 6.45 0 2.27374e-13 0.654167 -1.11965 0.513259 6.45 -1.13687e-13 -2.27374e-13 18.6062 19.9167 22.8011 0 -32.4 -2 -42.8864 -68.0327 -88.205 2.27374e-13 -25.65 2 29.5153 -19.3408 -21.1299 -0.5 -1.5 2.65 -36.2039 -60.6465 108.634 2.84217e-14 -3.8 3.7 -0.0553177 32.8733 0.0120698 5.68434e-14 -3 2.7 -0.125538 17.9304 0.00681671 0 -1.9 1.6 3.18055e-15 -4.77083e-15 2.38542e-15 2.27374e-13 -8.3 1.9 -40.2695 12.4102 5.3443 0 -4.5 -5.68434e-14 -78.8908 0.0105511 -0.00397774 1.13687e-13 -3.4 5.68434e-14 -64.0902 0.0244644 0.00801776 -0.25 -2.2 0.4 3.18055e-15 -4.77083e-15 2.38542e-15 1.13687e-13 -8.3 1 -37.9354 9.64967 4.74654 -4.54747e-13 -4.65 2.84217e-14 -76.3246 0.00693313 -0.000693278 -1.13687e-13 -3.3 -5.68434e-14 -90.0002 9.64106e-14 -7.07673e-14 -0.5 -2.15 -0.8 3.18055e-15 -4.77083e-15 2.38542e-15 0 -7.75 -0.2 -57.9754 5.74048 9.5469 -4.54747e-13 -3.8 -5.68434e-14 -1.77347 -0.000110986 -1.19271e-15 0 -3.4 0 -90.0002 -5.56696e-13 5.35675e-13 -0.75 -1.75 -1.85 3.18055e-15 -4.77083e-15 2.38542e-15 1.13687e-13 -7.15 -1 -18.1709 12.2681 2.68306 2.27374e-13 -3 0 -67.2698 -0.00144583 -0.00348933 0 -2.35 1.13687e-13 -90.0002 1.77465e-13 -1.47449e-13 -5 17 2.27374e-13 4.78554 -0.930872 -4.37401 -6.45 0 2.27374e-13 -1.77069 -0.00326186 -1.55183 -6.45 0 0 -42.0169 2.70779 -12.1922 -2.84217e-14 -32.4 -2 18.6524 -51.5102 37.7155 -2.27374e-13 -25.65 2 -32.3707 -10.6498 -11.1318 0.5 -1.5 2.65 25.4496 10.7081 17.1447 -1.13687e-13 -3.8 3.7 2.38616 26.0943 -0.807702 -1.13687e-13 -3 2.7 0.0966201 -1.26152 -0.193173 1.42109e-14 -1.9 1.6 -3.18055e-15 -6.36111e-15 7.95139e-15 -2.84217e-14 -8.3 1.9 18.1243 16.4663 -2.89201 0 -4.5 -2.27374e-13 1.17365e-06 0.00464329 -0.0144823 2.84217e-14 -3.4 -2.27374e-13 9.87768e-07 0.00430377 -0.0131501 0.25 -2.2 0.4 -3.18055e-15 -6.36111e-15 7.95139e-15 0 -8.3 1 13.8527 9.54027 -1.36704 -2.84217e-14 -4.65 -2.27374e-13 -2.80535e-14 -0.0012325 -1.59028e-15 0 -3.3 2.27374e-13 -4.96962e-15 4.66677e-06 -9.93923e-16 0.5 -2.15 -0.8 -3.18055e-15 -6.36111e-15 7.95139e-15 1.42109e-14 -7.75 -0.2 11.474 6.57499 -0.933534 0 -3.8 2.27374e-13 41.6263 0.0334246 -0.0981228 0 -3.4 4.54747e-13 29.1028 -0.01092 -0.0625461 0.75 -1.75 -1.85 -3.18055e-15 -6.36111e-15 7.95139e-15 1.42109e-14 -7.15 -1 17.4609 4.97701 -1.30205 0 -3 -2.27374e-13 33.7584 0.0167217 -0.0996642 0 -2.35 2.27374e-13 24.3364 -0.0149967 -0.0585521 8 -1.42109e-14 0 1.12464 -26.3838 -16.0929 0 -45 -1 -0.116516 27.8245 0.357464 -1.13687e-13 -41 -2 -3.40309 -2.88788 4.52899 0 -7.5 12.5 -1.36664e-16 4.96962e-17 9.54166e-15 5.68434e-14 -8.88178e-16 4 1.38346 -0.765254 41.3902 -8 0 -2.27374e-13 -3.13214 -18.4372 -34.4038 0 -45 -1 -0.0417905 27.5447 -0.0624046 -2.27374e-13 -41 -2 -3.4881 -9.13296 6.18142 1.13687e-13 -7.5 12.5 -5.27783e-17 -0.158461 -1.90834e-14 0 0 4 6.32929 9.37408 42.681 
-261.873 89.8358 1566.55 3.73066 -2.50656 163.159 2.84217e-14 8 0 16.0261 20.2301 -2.46311 -5.68434e-14 8 2.27374e-13 1.90077 7.63778 -0.805221 5.68434e-14 8 0 0.935657 3.8267 -0.367234 -1.7053e-13 8 0 0.933363 3.81758 -0.366342 5.68434e-14 17 0 3.8217 7.61153 -10.4924 -1.13687e-13 10.8 0 11.3421 16.5143 -25.9928 5 17 2.27374e-13 -4.23293 1.29624 -1.12256 6.45 0 0 0.67759 -1.10667 0.501493 6.45 -1.13687e-13 -2.27374e-13 18.4132 20.4373 23.9697 0 -32.4 -2 -47.0429 -67.9313 -92.0685 2.27374e-13 -25.65 2 30.6782 -19.954 -21.0075 -0.5 -1.5 2.65 -37.2791 -60.8918 107.798 2.84217e-14 -3.8 3.7 -0.0344998 33.0376 -0.000862596 1.42109e-13 -3 2.7 -0.127197 16.6433 0.00676922 0 -1.9 1.6 1.32417e-31 -4.77083e-15 1.59028e-15 1.13687e-13 -8.3 1.9 -40.0753 12.2679 5.26752 2.27374e-13 -4.5 -5.68434e-14 -79.1258 0.0105511 -0.00397774 1.13687e-13 -3.4 -5.68434e-14 -64.4874 0.02977 0.00801776 -0.25 -2.2 0.4 1.32417e-31 -4.77083e-15 1.59028e-15 0 -8.3 1 -37.7927 9.65356 4.74659 -2.27374e-13 -4.65 0 -76.425 0.00693313 -0.00735462 -1.13687e-13 -3.3 -2.84217e-14 -90.0002 5.78463e-14 -2.68359e-14 -0.5 -2.15 -0.8 1.32417e-31 -4.77083e-15 1.59028e-15 0 -7.75 -0.2 -57.9093 5.58718 9.51415 -2.27374e-13 -3.8 0 -1.77347 -0.000110986 -8.94531e-16 0 -3.4 0 -90.0002 -5.92776e-13 5.8234e-13 -0.75 -1.75 -1.85 1.32417e-31 -4.77083e-15 1.59028e-15 2.27374e-13 -7.15 -1 -18.4714 12.5222 2.78238 0 -3 -5.68434e-14 -67.2626 -0.00144583 -0.00348933 0 -2.35 1.13687e-13 -90.0002 1.54555e-13 -1.17718e-13 -5 17 2.27374e-13 4.94204 -1.02998 -4.1877 -6.45 0 2.27374e-13 -1.75615 -0.00347191 -1.55255 -6.45 0 0 -41.6045 2.52733 -11.9645 -2.84217e-14 -32.4 -2 15.8279 -50.2049 35.4945 -2.27374e-13 -25.65 2 -33.2738 -11.4529 -10.4829 0.5 -1.5 2.65 25.6761 8.52592 17.7283 -1.13687e-13 -3.8 3.7 2.28623 27.7268 -0.798443 0 -3 2.7 0.0899863 -1.04007 -0.181569 2.84217e-14 -1.9 1.6 -1.43125e-14 0 9.14409e-15 0 -8.3 1.9 18.2535 16.3905 -2.89656 -2.84217e-14 -4.5 -2.27374e-13 1.17365e-06 0.00464329 -0.0144823 0 -3.4 0 9.87768e-07 0.00430377 -0.0131501 0.25 -2.2 0.4 -1.43125e-14 0 9.14409e-15 1.42109e-14 -8.3 1 13.5303 9.42749 -1.3287 -5.68434e-14 -4.65 0 -2.36057e-14 -0.0012325 -3.18055e-15 0 -3.3 2.27374e-13 -1.41137e-14 4.66677e-06 -2.18663e-15 0.5 -2.15 -0.8 -1.43125e-14 0 9.14409e-15 1.42109e-14 -7.75 -0.2 10.7007 6.84707 -0.898118 -4.26326e-14 -3.8 0 43.0189 0.0222877 -0.0571474 0 -3.4 0 29.9562 -0.00564428 -0.0378156 0.75 -1.75 -1.85 -1.43125e-14 0 9.14409e-15 2.84217e-14 -7.15 -1 16.9363 5.72498 -1.36987 2.84217e-14 -3 2.27374e-13 34.697 0.0103384 -0.0435494 -1.13687e-13 -2.35 4.54747e-13 24.898 -0.00521098 -0.0261672 8 1.42109e-14 0 0.805368 -26.969 -16.0156 0 -45 -1 -0.0789638 28.7452 0.136838 -1.13687e-13 -41 -2 -3.07516 -2.91819 4.04203 -1.13687e-13 -7.5 12.5 -4.34841e-17 -4.34841e-17 -0 1.13687e-13 -4.44089e-16 4 1.40358 -0.67987 41.4009 -8 0 0 -3.21988 -19.0947 -33.9926 -1.13687e-13 -45 -1 -0.105191 28.8055 0.161957 1.13687e-13 -41 -2 -3.53481 -9.17704 5.46456 2.27374e-13 -7.5 12.5 -1.97654e-16 -0.666314 -1.27231e-14 -2.27374e-13 0 4 5.90173 9.90318 42.7289 
